STARTFONT 2.1
COMMENT $XConsortium: luRS19.bdf,v 1.3 94/04/02 16:00:14 gildea Exp $
COMMENT  (c) Copyright Bigelow & Holmes 1986, 1985. Lucida is a registered
COMMENT  trademark of Bigelow & Holmes. See LEGAL NOTICE file for terms 
COMMENT  of the license. 
COMMENT  
COMMENT  Translation to ISO8859-2 by Cub Soft;  Petr.Kolar@vslib.cz
COMMENT  
FONT -B&H-Lucida-Medium-R-Normal-Sans-19-190-75-75-P-108-ISO8859-2
SIZE 19 72 72
FONTBOUNDINGBOX 32 22 -13 -4
STARTPROPERTIES 20
COMMENT Begin LogicalFontDescription
FONTNAME_REGISTRY ""
FOUNDRY "B&H"
FAMILY_NAME "Lucida"
WEIGHT_NAME "Medium"
SLANT "R"
SETWIDTH_NAME "Normal"
ADD_STYLE_NAME "Sans"
PIXEL_SIZE 19
POINT_SIZE 190
RESOLUTION_X 75
RESOLUTION_Y 75
SPACING "P"
AVERAGE_WIDTH "108"
CHARSET_REGISTRY "ISO8859"
CHARSET_ENCODING "2"
COMMENT END LogicalFontDescription
COPYRIGHT "Copyright Bigelow & Holmes 1986, 1985., Copyright 1996 Cub Soft"
FONT_ASCENT 17
FONT_DESCENT 4
DEFAULT_CHAR 0
FACE_NAME "Lucida Sans"
ENDPROPERTIES
CHARS 191
STARTCHAR space
ENCODING 32
SWIDTH 316 0
DWIDTH 6 0
BBX 1 1 0 0
BITMAP
00
ENDCHAR
STARTCHAR exclam
ENCODING 33
SWIDTH 205 0
DWIDTH 6 0
BBX 2 14 2 0
BITMAP
c0
c0
c0
c0
c0
c0
c0
c0
c0
c0
00
00
c0
c0
ENDCHAR
STARTCHAR quotedbl
ENCODING 34
SWIDTH 373 0
DWIDTH 7 0
BBX 5 5 1 9
BITMAP
d8
d8
d8
d8
d8
ENDCHAR
STARTCHAR numbersign
ENCODING 35
SWIDTH 633 0
DWIDTH 12 0
BBX 12 14 0 0
BITMAP
06e0
0ec0
0cc0
0cc0
7ff0
7ff0
1980
1980
1980
ffe0
ffe0
3300
3300
7600
ENDCHAR
STARTCHAR dollar
ENCODING 36
SWIDTH 633 0
DWIDTH 12 0
BBX 8 17 2 -2
BITMAP
18
7f
fd
d8
d8
d8
78
38
1c
1e
1b
1b
1b
ff
7e
1c
18
ENDCHAR
STARTCHAR percent
ENCODING 37
SWIDTH 669 0
DWIDTH 13 0
BBX 13 14 0 0
BITMAP
7838
fc30
cc60
cce0
fdc0
7b80
03f0
06f0
0f98
1d98
3998
3198
60f0
e0f0
ENDCHAR
STARTCHAR ampersand
ENCODING 38
SWIDTH 697 0
DWIDTH 13 0
BBX 11 14 1 0
BITMAP
1e00
3f00
3300
3300
3700
3e00
7800
ec60
ce60
c760
c3c0
e380
7f80
3ce0
ENDCHAR
STARTCHAR apostrophe
ENCODING 39
SWIDTH 229 0
DWIDTH 4 0
BBX 3 5 1 9
BITMAP
e0
e0
60
60
c0
ENDCHAR
STARTCHAR parenleft
ENCODING 40
SWIDTH 325 0
DWIDTH 6 0
BBX 5 18 1 -4
BITMAP
08
18
30
20
60
40
c0
c0
c0
c0
c0
c0
40
60
60
30
18
08
ENDCHAR
STARTCHAR parenright
ENCODING 41
SWIDTH 325 0
DWIDTH 6 0
BBX 5 18 0 -4
BITMAP
80
c0
60
20
30
10
18
18
18
18
18
18
10
30
30
60
c0
80
ENDCHAR
STARTCHAR asterisk
ENCODING 42
SWIDTH 482 0
DWIDTH 9 0
BBX 7 7 1 7
BITMAP
10
10
d6
6c
28
28
44
ENDCHAR
STARTCHAR plus
ENCODING 43
SWIDTH 633 0
DWIDTH 12 0
BBX 12 12 0 0
BITMAP
0600
0600
0600
0600
0600
fff0
fff0
0600
0600
0600
0600
0600
ENDCHAR
STARTCHAR comma
ENCODING 44
SWIDTH 316 0
DWIDTH 6 0
BBX 3 7 2 -4
BITMAP
e0
e0
e0
60
60
60
c0
ENDCHAR
STARTCHAR minus
ENCODING 45
SWIDTH 633 0
DWIDTH 12 0
BBX 11 2 1 5
BITMAP
ffe0
ffe0
ENDCHAR
STARTCHAR period
ENCODING 46
SWIDTH 316 0
DWIDTH 6 0
BBX 2 2 2 0
BITMAP
c0
c0
ENDCHAR
STARTCHAR slash
ENCODING 47
SWIDTH 494 0
DWIDTH 9 0
BBX 9 18 0 -4
BITMAP
0180
0180
0300
0300
0600
0600
0e00
0c00
0c00
1800
1800
3800
3000
3000
6000
6000
c000
c000
ENDCHAR
STARTCHAR zero
ENCODING 48
SWIDTH 633 0
DWIDTH 12 0
BBX 10 14 1 0
BITMAP
1e00
3f00
7380
6180
c0c0
c0c0
c0c0
c0c0
c0c0
c0c0
6180
7380
3f00
1e00
ENDCHAR
STARTCHAR one
ENCODING 49
SWIDTH 633 0
DWIDTH 12 0
BBX 4 14 3 0
BITMAP
f0
f0
30
30
30
30
30
30
30
30
30
30
30
30
ENDCHAR
STARTCHAR two
ENCODING 50
SWIDTH 633 0
DWIDTH 12 0
BBX 8 14 2 0
BITMAP
7c
fe
87
03
03
03
06
0e
38
30
60
c0
ff
ff
ENDCHAR
STARTCHAR three
ENCODING 51
SWIDTH 633 0
DWIDTH 12 0
BBX 8 14 2 0
BITMAP
7c
fe
87
03
03
06
78
7e
07
03
03
87
fe
fc
ENDCHAR
STARTCHAR four
ENCODING 52
SWIDTH 633 0
DWIDTH 12 0
BBX 10 14 1 0
BITMAP
0700
0700
0f00
1f00
3b00
3300
6300
e300
ffc0
ffc0
0300
0300
0300
0300
ENDCHAR
STARTCHAR five
ENCODING 53
SWIDTH 633 0
DWIDTH 12 0
BBX 7 14 3 0
BITMAP
fe
fe
c0
c0
c0
f8
fc
0e
06
06
06
8e
fc
f8
ENDCHAR
STARTCHAR six
ENCODING 54
SWIDTH 633 0
DWIDTH 12 0
BBX 9 14 1 0
BITMAP
1f00
3f00
7100
6000
c000
de00
ff00
e380
c180
c180
4180
6300
3f00
1e00
ENDCHAR
STARTCHAR seven
ENCODING 55
SWIDTH 633 0
DWIDTH 12 0
BBX 9 14 2 0
BITMAP
ff80
ff80
0380
0300
0700
0600
0c00
1c00
1800
3800
3000
7000
6000
6000
ENDCHAR
STARTCHAR eight
ENCODING 56
SWIDTH 633 0
DWIDTH 12 0
BBX 9 14 2 0
BITMAP
1e00
3f80
7380
6180
6180
3200
3c00
7f00
e380
c180
c180
e380
7f00
3e00
ENDCHAR
STARTCHAR nine
ENCODING 57
SWIDTH 633 0
DWIDTH 12 0
BBX 9 14 2 0
BITMAP
3c00
7f00
e300
c180
c180
c180
e380
7d80
3d80
0180
0300
4700
7e00
7c00
ENDCHAR
STARTCHAR colon
ENCODING 58
SWIDTH 316 0
DWIDTH 6 0
BBX 2 10 2 0
BITMAP
c0
c0
00
00
00
00
00
00
c0
c0
ENDCHAR
STARTCHAR semicolon
ENCODING 59
SWIDTH 316 0
DWIDTH 6 0
BBX 2 14 2 -4
BITMAP
c0
c0
00
00
00
00
00
00
c0
c0
c0
c0
c0
80
ENDCHAR
STARTCHAR less
ENCODING 60
SWIDTH 633 0
DWIDTH 12 0
BBX 12 12 2 0
BITMAP
0010
0070
01e0
0780
1e00
fc00
7c00
1e00
0780
01e0
0070
0010
ENDCHAR
STARTCHAR equal
ENCODING 61
SWIDTH 633 0
DWIDTH 12 0
BBX 11 5 1 3
BITMAP
ffe0
ffe0
0000
ffe0
ffe0
ENDCHAR
STARTCHAR greater
ENCODING 62
SWIDTH 633 0
DWIDTH 12 0
BBX 12 12 1 0
BITMAP
8000
e000
7800
1e00
0780
03e0
03f0
0780
1e00
7800
e000
8000
ENDCHAR
STARTCHAR question
ENCODING 63
SWIDTH 422 0
DWIDTH 8 0
BBX 7 14 0 0
BITMAP
78
fc
8e
06
06
0c
1c
38
30
30
30
00
30
30
ENDCHAR
STARTCHAR at
ENCODING 64
SWIDTH 858 0
DWIDTH 16 0
BBX 15 14 2 0
BITMAP
03e0
0ff8
1c1c
31ee
63c6
6646
cc86
cd86
cdec
ce7c
ec78
7040
3fc0
0f80
ENDCHAR
STARTCHAR A
ENCODING 65
SWIDTH 690 0
DWIDTH 13 0
BBX 13 14 0 0
BITMAP
0700
0700
0f80
0d80
0d80
18c0
18c0
30e0
3fe0
3fe0
6030
6030
e030
c018
ENDCHAR
STARTCHAR B
ENCODING 66
SWIDTH 575 0
DWIDTH 11 0
BBX 8 14 2 0
BITMAP
fc
fe
c3
c3
c3
c6
f8
fc
c7
c3
c3
c3
fe
fc
ENDCHAR
STARTCHAR C
ENCODING 67
SWIDTH 692 0
DWIDTH 13 0
BBX 11 14 1 0
BITMAP
0fc0
3fe0
7020
6000
e000
c000
c000
c000
c000
c000
6000
7020
3fe0
0fc0
ENDCHAR
STARTCHAR D
ENCODING 68
SWIDTH 749 0
DWIDTH 14 0
BBX 11 14 2 0
BITMAP
fe00
ff80
c1c0
c0c0
c060
c060
c060
c060
c060
c060
c0c0
c1c0
ff80
fe00
ENDCHAR
STARTCHAR E
ENCODING 69
SWIDTH 542 0
DWIDTH 10 0
BBX 8 14 2 0
BITMAP
ff
ff
c0
c0
c0
c0
fe
fe
c0
c0
c0
c0
ff
ff
ENDCHAR
STARTCHAR F
ENCODING 70
SWIDTH 536 0
DWIDTH 10 0
BBX 8 14 2 0
BITMAP
ff
ff
c0
c0
c0
c0
fe
fe
c0
c0
c0
c0
c0
c0
ENDCHAR
STARTCHAR G
ENCODING 71
SWIDTH 723 0
DWIDTH 14 0
BBX 11 14 1 0
BITMAP
0fc0
3fe0
7020
6000
e000
c000
c000
c060
c060
c060
6060
7060
3fe0
0fc0
ENDCHAR
STARTCHAR H
ENCODING 72
SWIDTH 735 0
DWIDTH 14 0
BBX 10 14 2 0
BITMAP
c0c0
c0c0
c0c0
c0c0
c0c0
c0c0
ffc0
ffc0
c0c0
c0c0
c0c0
c0c0
c0c0
c0c0
ENDCHAR
STARTCHAR I
ENCODING 73
SWIDTH 288 0
DWIDTH 5 0
BBX 2 14 2 0
BITMAP
c0
c0
c0
c0
c0
c0
c0
c0
c0
c0
c0
c0
c0
c0
ENDCHAR
STARTCHAR J
ENCODING 74
SWIDTH 311 0
DWIDTH 6 0
BBX 6 18 -1 -4
BITMAP
0c
0c
0c
0c
0c
0c
0c
0c
0c
0c
0c
0c
0c
0c
0c
0c
f8
f0
ENDCHAR
STARTCHAR K
ENCODING 75
SWIDTH 653 0
DWIDTH 12 0
BBX 10 14 2 0
BITMAP
c180
c300
c700
ce00
cc00
d800
f800
f800
dc00
cc00
c600
c300
c380
c1c0
ENDCHAR
STARTCHAR L
ENCODING 76
SWIDTH 533 0
DWIDTH 10 0
BBX 8 14 2 0
BITMAP
c0
c0
c0
c0
c0
c0
c0
c0
c0
c0
c0
c0
ff
ff
ENDCHAR
STARTCHAR M
ENCODING 77
SWIDTH 861 0
DWIDTH 16 0
BBX 13 14 2 0
BITMAP
e038
e038
f078
f078
f878
d8d8
d8d8
dcd8
cd98
cd98
cf98
c718
c718
c018
ENDCHAR
STARTCHAR N
ENCODING 78
SWIDTH 741 0
DWIDTH 14 0
BBX 10 14 2 0
BITMAP
c0c0
e0c0
f0c0
f0c0
f8c0
d8c0
ccc0
ccc0
c6c0
c7c0
c3c0
c3c0
c1c0
c0c0
ENDCHAR
STARTCHAR O
ENCODING 79
SWIDTH 777 0
DWIDTH 15 0
BBX 13 14 1 0
BITMAP
0f80
3fe0
7070
6030
e038
c018
c018
c018
c018
e038
6030
7070
3fe0
0f80
ENDCHAR
STARTCHAR P
ENCODING 80
SWIDTH 553 0
DWIDTH 10 0
BBX 8 14 2 0
BITMAP
fe
ff
c7
c3
c3
c3
c6
fe
f8
c0
c0
c0
c0
c0
ENDCHAR
STARTCHAR Q
ENCODING 81
SWIDTH 777 0
DWIDTH 15 0
BBX 14 18 1 -4
BITMAP
0f80
3fe0
7070
6030
e038
c018
c018
c018
c018
e038
6030
7070
3fe0
0fc0
00f0
007c
0038
0008
ENDCHAR
STARTCHAR R
ENCODING 82
SWIDTH 633 0
DWIDTH 12 0
BBX 10 14 2 0
BITMAP
fc00
fe00
c700
c300
c300
c200
c600
f800
fc00
ce00
c600
c300
c380
c1c0
ENDCHAR
STARTCHAR S
ENCODING 83
SWIDTH 539 0
DWIDTH 10 0
BBX 8 14 1 0
BITMAP
3e
7e
e2
c0
c0
70
3c
1e
07
03
03
87
fe
7c
ENDCHAR
STARTCHAR T
ENCODING 84
SWIDTH 633 0
DWIDTH 12 0
BBX 12 14 0 0
BITMAP
fff0
fff0
0600
0600
0600
0600
0600
0600
0600
0600
0600
0600
0600
0600
ENDCHAR
STARTCHAR U
ENCODING 85
SWIDTH 693 0
DWIDTH 13 0
BBX 10 14 2 0
BITMAP
c0c0
c0c0
c0c0
c0c0
c0c0
c0c0
c0c0
c0c0
c0c0
c0c0
c0c0
e1c0
7f80
3f00
ENDCHAR
STARTCHAR V
ENCODING 86
SWIDTH 654 0
DWIDTH 12 0
BBX 12 14 0 0
BITMAP
c030
e030
6060
6060
30e0
30c0
30c0
19c0
1980
1d80
0f00
0f00
0700
0600
ENDCHAR
STARTCHAR W
ENCODING 87
SWIDTH 855 0
DWIDTH 16 0
BBX 16 14 0 0
BITMAP
c183
c183
63c7
63c6
63c6
63c6
36ec
366c
366c
366c
1e78
1c38
1c38
1c38
ENDCHAR
STARTCHAR X
ENCODING 88
SWIDTH 626 0
DWIDTH 12 0
BBX 11 14 0 0
BITMAP
e0e0
60c0
31c0
3980
1b00
0f00
0e00
0e00
1f00
1b00
3180
71c0
60c0
c0e0
ENDCHAR
STARTCHAR Y
ENCODING 89
SWIDTH 623 0
DWIDTH 12 0
BBX 12 14 0 0
BITMAP
e030
6060
70e0
30c0
1980
1f80
0f00
0700
0600
0600
0600
0600
0600
0600
ENDCHAR
STARTCHAR Z
ENCODING 90
SWIDTH 605 0
DWIDTH 11 0
BBX 10 14 1 0
BITMAP
ffc0
ffc0
0180
0380
0300
0600
0e00
1c00
1800
3000
7000
e000
ffc0
ffc0
ENDCHAR
STARTCHAR bracketleft
ENCODING 91
SWIDTH 325 0
DWIDTH 6 0
BBX 4 18 2 -4
BITMAP
f0
f0
c0
c0
c0
c0
c0
c0
c0
c0
c0
c0
c0
c0
c0
c0
f0
f0
ENDCHAR
STARTCHAR backslash
ENCODING 92
SWIDTH 494 0
DWIDTH 9 0
BBX 9 18 0 -4
BITMAP
c000
c000
6000
6000
3000
3000
3800
1800
1800
0c00
0c00
0e00
0600
0600
0300
0300
0180
0180
ENDCHAR
STARTCHAR bracketright
ENCODING 93
SWIDTH 325 0
DWIDTH 6 0
BBX 4 18 1 -4
BITMAP
f0
f0
30
30
30
30
30
30
30
30
30
30
30
30
30
30
f0
f0
ENDCHAR
STARTCHAR asciicircum
ENCODING 94
SWIDTH 633 0
DWIDTH 12 0
BBX 11 13 1 2
BITMAP
0400
0400
0e00
0e00
0e00
1b00
1b00
3180
3180
60c0
60c0
e0e0
c060
ENDCHAR
STARTCHAR underscore
ENCODING 95
SWIDTH 500 0
DWIDTH 10 0
BBX 8 2 1 -2
BITMAP
ff
ff
ENDCHAR
STARTCHAR grave
ENCODING 96
SWIDTH 614 0
DWIDTH 12 0
BBX 4 3 3 11
BITMAP
c0
60
30
ENDCHAR
STARTCHAR a
ENCODING 97
SWIDTH 552 0
DWIDTH 10 0
BBX 9 10 1 0
BITMAP
3e00
7f00
4300
0300
3f00
7f00
c300
c300
ff80
7380
ENDCHAR
STARTCHAR b
ENCODING 98
SWIDTH 630 0
DWIDTH 12 0
BBX 9 14 2 0
BITMAP
c000
c000
c000
c000
de00
ff00
e380
c180
c180
c180
c180
e300
ff00
de00
ENDCHAR
STARTCHAR c
ENCODING 99
SWIDTH 518 0
DWIDTH 10 0
BBX 8 10 1 0
BITMAP
1f
7f
60
c0
c0
c0
c0
61
7f
1e
ENDCHAR
STARTCHAR d
ENCODING 100
SWIDTH 630 0
DWIDTH 12 0
BBX 9 14 1 0
BITMAP
0180
0180
0180
0180
3d80
7f80
6380
c180
c180
c180
c180
e380
7f80
3d80
ENDCHAR
STARTCHAR e
ENCODING 101
SWIDTH 557 0
DWIDTH 11 0
BBX 8 10 1 0
BITMAP
3c
7e
63
c3
ff
ff
c0
e1
7f
3e
ENDCHAR
STARTCHAR f
ENCODING 102
SWIDTH 367 0
DWIDTH 7 0
BBX 7 15 1 0
BITMAP
1e
3e
60
60
60
fc
fc
60
60
60
60
60
60
60
60
ENDCHAR
STARTCHAR g
ENCODING 103
SWIDTH 623 0
DWIDTH 12 0
BBX 9 14 1 -4
BITMAP
3d80
7f80
6380
c180
c180
c180
c180
e380
7d80
3980
0180
4300
7f00
7e00
ENDCHAR
STARTCHAR h
ENCODING 104
SWIDTH 620 0
DWIDTH 12 0
BBX 8 14 2 0
BITMAP
c0
c0
c0
c0
ce
df
e3
c3
c3
c3
c3
c3
c3
c3
ENDCHAR
STARTCHAR i
ENCODING 105
SWIDTH 289 0
DWIDTH 5 0
BBX 2 14 2 0
BITMAP
c0
c0
00
00
c0
c0
c0
c0
c0
c0
c0
c0
c0
c0
ENDCHAR
STARTCHAR j
ENCODING 106
SWIDTH 304 0
DWIDTH 6 0
BBX 6 18 -1 -4
BITMAP
0c
0c
00
00
0c
0c
0c
0c
0c
0c
0c
0c
0c
0c
0c
8c
f8
f0
ENDCHAR
STARTCHAR k
ENCODING 107
SWIDTH 585 0
DWIDTH 11 0
BBX 9 14 2 0
BITMAP
c000
c000
c000
c000
c700
c600
cc00
d800
f800
f800
dc00
ce00
c700
c380
ENDCHAR
STARTCHAR l
ENCODING 108
SWIDTH 289 0
DWIDTH 5 0
BBX 2 14 2 0
BITMAP
c0
c0
c0
c0
c0
c0
c0
c0
c0
c0
c0
c0
c0
c0
ENDCHAR
STARTCHAR m
ENCODING 109
SWIDTH 934 0
DWIDTH 18 0
BBX 14 10 2 0
BITMAP
ce38
df7c
e38c
c30c
c30c
c30c
c30c
c30c
c30c
c30c
ENDCHAR
STARTCHAR n
ENCODING 110
SWIDTH 620 0
DWIDTH 12 0
BBX 8 10 2 0
BITMAP
ce
df
e3
c3
c3
c3
c3
c3
c3
c3
ENDCHAR
STARTCHAR o
ENCODING 111
SWIDTH 614 0
DWIDTH 12 0
BBX 10 10 1 0
BITMAP
1e00
7f80
6180
c0c0
c0c0
c0c0
c0c0
6180
7f80
1e00
ENDCHAR
STARTCHAR p
ENCODING 112
SWIDTH 630 0
DWIDTH 12 0
BBX 9 14 2 -4
BITMAP
de00
ff00
e380
c180
c180
c180
c180
e300
ff00
de00
c000
c000
c000
c000
ENDCHAR
STARTCHAR q
ENCODING 113
SWIDTH 630 0
DWIDTH 12 0
BBX 9 14 1 -4
BITMAP
3d80
7f80
6380
c180
c180
c180
c180
e380
7f80
3d80
0180
0180
0180
0180
ENDCHAR
STARTCHAR r
ENCODING 114
SWIDTH 409 0
DWIDTH 8 0
BBX 6 10 2 0
BITMAP
cc
dc
e0
c0
c0
c0
c0
c0
c0
c0
ENDCHAR
STARTCHAR s
ENCODING 115
SWIDTH 510 0
DWIDTH 10 0
BBX 7 10 1 0
BITMAP
7c
fc
c0
e0
78
3e
06
86
fe
7c
ENDCHAR
STARTCHAR t
ENCODING 116
SWIDTH 374 0
DWIDTH 7 0
BBX 6 13 1 0
BITMAP
60
60
60
fc
fc
60
60
60
60
60
60
7c
3c
ENDCHAR
STARTCHAR u
ENCODING 117
SWIDTH 620 0
DWIDTH 12 0
BBX 8 10 2 0
BITMAP
c3
c3
c3
c3
c3
c3
c3
c7
fb
73
ENDCHAR
STARTCHAR v
ENCODING 118
SWIDTH 572 0
DWIDTH 10 0
BBX 10 10 0 0
BITMAP
c0c0
e1c0
6180
6180
3300
3300
3e00
1e00
1e00
0c00
ENDCHAR
STARTCHAR w
ENCODING 119
SWIDTH 840 0
DWIDTH 15 0
BBX 14 10 0 0
BITMAP
c30c
c78c
6798
6798
6798
6cf0
3cf0
3cf0
38f0
3860
ENDCHAR
STARTCHAR x
ENCODING 120
SWIDTH 613 0
DWIDTH 12 0
BBX 10 10 1 0
BITMAP
e1c0
7180
3300
1f00
1e00
1e00
3e00
3300
6380
e1c0
ENDCHAR
STARTCHAR y
ENCODING 121
SWIDTH 568 0
DWIDTH 10 0
BBX 10 14 0 -4
BITMAP
c0c0
61c0
6180
6180
3300
3300
1f00
1e00
1e00
0c00
0c00
1c00
1800
3800
ENDCHAR
STARTCHAR z
ENCODING 122
SWIDTH 573 0
DWIDTH 11 0
BBX 9 10 1 0
BITMAP
ff80
ff80
0300
0600
0c00
1800
3000
6000
ff80
ff80
ENDCHAR
STARTCHAR braceleft
ENCODING 123
SWIDTH 325 0
DWIDTH 6 0
BBX 5 18 0 -4
BITMAP
18
38
30
30
30
30
30
30
20
e0
f0
30
30
30
30
30
38
18
ENDCHAR
STARTCHAR bar
ENCODING 124
SWIDTH 265 0
DWIDTH 5 0
BBX 2 18 2 -4
BITMAP
c0
c0
c0
c0
c0
c0
c0
c0
c0
c0
c0
c0
c0
c0
c0
c0
c0
c0
ENDCHAR
STARTCHAR braceright
ENCODING 125
SWIDTH 325 0
DWIDTH 6 0
BBX 5 18 1 -4
BITMAP
c0
e0
60
60
60
60
60
78
38
20
60
60
60
60
60
60
e0
c0
ENDCHAR
STARTCHAR asciitilde
ENCODING 126
SWIDTH 633 0
DWIDTH 12 0
BBX 11 5 1 3
BITMAP
7860
7c60
ce60
c7c0
c1c0
ENDCHAR
STARTCHAR nobreakspace
ENCODING 160
SWIDTH 316 0
DWIDTH 6 0
BBX 1 1 0 0
BITMAP
00
ENDCHAR
STARTCHAR Aogonek
ENCODING 161
SWIDTH 690 0
DWIDTH 13 0
BBX 13 17 0 -3
BITMAP
0700
0700
0f80
0d80
0d80
18c0
18c0
30e0
3fe0
3fe0
6030
6030
e030
c018
0200
0400
0700
ENDCHAR
STARTCHAR breve
ENCODING 162
SWIDTH 614 0
DWIDTH 12 0
BBX 6 3 3 11
BITMAP
84
fc
78
ENDCHAR
STARTCHAR Lstroke
ENCODING 163
SWIDTH 533 0
DWIDTH 10 0
BBX 10 14 0 0
BITMAP
3000
3000
3000
3000
3400
3c00
3800
f000
b000
3000
3000
3000
3fc0
3fc0
ENDCHAR
STARTCHAR currency
ENCODING 164
SWIDTH 633 0
DWIDTH 12 0
BBX 10 12 1 1
BITMAP
c0c0
ffc0
7f80
3300
6180
6180
6180
6180
3300
7f80
ffc0
c0c0
ENDCHAR
STARTCHAR Lcaron
ENCODING 165
SWIDTH 533 0
DWIDTH 10 0
BBX 8 15 2 0
BITMAP
1c
dc
cc
cc
d8
c0
c0
c0
c0
c0
c0
c0
c0
ff
ff
ENDCHAR
STARTCHAR Sacute
ENCODING 166
SWIDTH 539 0
DWIDTH 10 0
BBX 8 18 1 0
BITMAP
06
0c
18
00
3e
7e
e2
c0
c0
70
3c
1e
07
03
03
87
fe
7c
ENDCHAR
STARTCHAR section
ENCODING 167
SWIDTH 633 0
DWIDTH 12 0
BBX 8 18 2 -4
BITMAP
3e
7f
e1
c0
c0
70
7c
ce
c3
e3
73
3e
0e
03
03
87
ff
7c
ENDCHAR
STARTCHAR diaeresis
ENCODING 168
SWIDTH 614 0
DWIDTH 12 0
BBX 5 2 3 12
BITMAP
98
98
ENDCHAR
STARTCHAR Scaron
ENCODING 169
SWIDTH 539 0
DWIDTH 10 0
BBX 8 18 1 0
BITMAP
66
3c
18
00
3e
7e
e2
c0
c0
70
3c
1e
07
03
03
87
fe
7c
ENDCHAR
STARTCHAR Scedilla
ENCODING 170
SWIDTH 539 0
DWIDTH 10 0
BBX 8 18 1 -4
BITMAP
3e
7e
e2
c0
c0
70
3c
1e
07
03
03
87
fe
7c
30
18
18
38
ENDCHAR
STARTCHAR Tcaron
ENCODING 171
SWIDTH 633 0
DWIDTH 12 0
BBX 12 18 0 0
BITMAP
1980
0f00
0600
0000
fff0
fff0
0600
0600
0600
0600
0600
0600
0600
0600
0600
0600
0600
0600
ENDCHAR
STARTCHAR Zacute
ENCODING 172
SWIDTH 605 0
DWIDTH 11 0
BBX 10 18 1 0
BITMAP
0300
0600
0c00
0000
ffc0
ffc0
0180
0380
0300
0600
0e00
1c00
1800
3000
7000
e000
ffc0
ffc0
ENDCHAR
STARTCHAR hyphen
ENCODING 173
SWIDTH 325 0
DWIDTH 6 0
BBX 4 2 1 5
BITMAP
f0
f0
ENDCHAR
STARTCHAR Zcaron
ENCODING 174
SWIDTH 605 0
DWIDTH 11 0
BBX 10 18 1 0
BITMAP
3300
1e00
0c00
0000
ffc0
ffc0
0180
0380
0300
0600
0e00
1c00
1800
3000
7000
e000
ffc0
ffc0
ENDCHAR
STARTCHAR Zabovedot
ENCODING 175
SWIDTH 605 0
DWIDTH 11 0
BBX 10 17 1 0
BITMAP
0c00
0c00
0000
ffc0
ffc0
0180
0380
0300
0600
0e00
1c00
1800
3000
7000
e000
ffc0
ffc0
ENDCHAR
STARTCHAR degree
ENCODING 176
SWIDTH 277 0
DWIDTH 5 0
BBX 3 4 1 10
BITMAP
40
a0
a0
40
ENDCHAR
STARTCHAR aogonek
ENCODING 177
SWIDTH 552 0
DWIDTH 10 0
BBX 9 13 1 -3
BITMAP
3e00
7f00
4300
0300
3f00
7f00
c300
c300
ff80
7380
0800
1000
1c00
ENDCHAR
STARTCHAR ogonek
ENCODING 178
SWIDTH 614 0
DWIDTH 12 0
BBX 3 3 5 -4
BITMAP
40
80
e0
ENDCHAR
STARTCHAR lstroke
ENCODING 179
SWIDTH 289 0
DWIDTH 5 0
BBX 6 14 0 0
BITMAP
30
30
30
30
34
3c
30
f0
b0
30
30
30
30
30
ENDCHAR
STARTCHAR acute
ENCODING 180
SWIDTH 614 0
DWIDTH 12 0
BBX 4 3 4 11
BITMAP
30
60
c0
ENDCHAR
STARTCHAR lcaron
ENCODING 181
SWIDTH 473 0
DWIDTH 9 0
BBX 6 15 2 0
BITMAP
1c
dc
cc
cc
d8
c0
c0
c0
c0
c0
c0
c0
c0
c0
c0
ENDCHAR
STARTCHAR sacute
ENCODING 182
SWIDTH 510 0
DWIDTH 10 0
BBX 7 14 1 0
BITMAP
0c
18
30
00
7c
fc
c0
e0
78
3e
06
86
fe
7c
ENDCHAR
STARTCHAR caron
ENCODING 183
SWIDTH 614 0
DWIDTH 12 0
BBX 6 3 3 11
BITMAP
cc
78
30
ENDCHAR
STARTCHAR cedilla
ENCODING 184
SWIDTH 614 0
DWIDTH 12 0
BBX 3 4 5 -4
BITMAP
c0
60
60
e0
ENDCHAR
STARTCHAR scaron
ENCODING 185
SWIDTH 510 0
DWIDTH 10 0
BBX 7 14 1 0
BITMAP
cc
78
30
00
7c
fc
c0
e0
78
3e
06
86
fe
7c
ENDCHAR
STARTCHAR scedilla
ENCODING 186
SWIDTH 510 0
DWIDTH 10 0
BBX 7 14 1 -4
BITMAP
7c
fc
c0
e0
78
3e
06
86
fe
7c
30
18
18
38
ENDCHAR
STARTCHAR tcaron
ENCODING 187
SWIDTH 421 0
DWIDTH 8 0
BBX 7 16 1 0
BITMAP
0e
0e
06
66
6c
60
fc
fc
60
60
60
60
60
60
7c
3c
ENDCHAR
STARTCHAR zacute
ENCODING 188
SWIDTH 573 0
DWIDTH 11 0
BBX 9 14 1 0
BITMAP
0300
0600
0c00
0000
ff80
ff80
0300
0600
0c00
1800
3000
6000
ff80
ff80
ENDCHAR
STARTCHAR doubleacute
ENCODING 189
SWIDTH 614 0
DWIDTH 12 0
BBX 6 3 3 11
BITMAP
3c
58
f0
ENDCHAR
STARTCHAR zcaron
ENCODING 190
SWIDTH 573 0
DWIDTH 11 0
BBX 9 14 1 0
BITMAP
3300
1e00
0c00
0000
ff80
ff80
0300
0600
0c00
1800
3000
6000
ff80
ff80
ENDCHAR
STARTCHAR zabovedot
ENCODING 191
SWIDTH 573 0
DWIDTH 11 0
BBX 9 13 1 0
BITMAP
0c00
0c00
0000
ff80
ff80
0300
0600
0c00
1800
3000
6000
ff80
ff80
ENDCHAR
STARTCHAR Racute
ENCODING 192
SWIDTH 633 0
DWIDTH 12 0
BBX 10 18 2 0
BITMAP
0600
0c00
1800
0000
fc00
fe00
c700
c300
c300
c200
c600
f800
fc00
ce00
c600
c300
c380
c1c0
ENDCHAR
STARTCHAR Aacute
ENCODING 193
SWIDTH 690 0
DWIDTH 13 0
BBX 13 18 0 0
BITMAP
0180
0300
0600
0000
0700
0700
0f80
0d80
0d80
18c0
18c0
30e0
3fe0
3fe0
6030
6030
e030
c018
ENDCHAR
STARTCHAR Acircumflex
ENCODING 194
SWIDTH 690 0
DWIDTH 13 0
BBX 13 18 0 0
BITMAP
0300
0780
0cc0
0000
0700
0700
0f80
0d80
0d80
18c0
18c0
30e0
3fe0
3fe0
6030
6030
e030
c018
ENDCHAR
STARTCHAR Abreve
ENCODING 195
SWIDTH 690 0
DWIDTH 13 0
BBX 13 18 0 0
BITMAP
0840
0fc0
0780
0000
0700
0700
0f80
0d80
0d80
18c0
18c0
30e0
3fe0
3fe0
6030
6030
e030
c018
ENDCHAR
STARTCHAR Adiaeresis
ENCODING 196
SWIDTH 690 0
DWIDTH 13 0
BBX 13 17 0 0
BITMAP
0980
0980
0000
0700
0700
0f80
0d80
0d80
18c0
18c0
30e0
3fe0
3fe0
6030
6030
e030
c018
ENDCHAR
STARTCHAR Lacute
ENCODING 197
SWIDTH 533 0
DWIDTH 10 0
BBX 8 18 2 0
BITMAP
30
60
c0
00
c0
c0
c0
c0
c0
c0
c0
c0
c0
c0
c0
c0
ff
ff
ENDCHAR
STARTCHAR Cacute
ENCODING 198
SWIDTH 692 0
DWIDTH 13 0
BBX 11 18 1 0
BITMAP
0180
0300
0600
0000
0fc0
3fe0
7020
6000
e000
c000
c000
c000
c000
c000
6000
7020
3fe0
0fc0
ENDCHAR
STARTCHAR Ccedilla
ENCODING 199
SWIDTH 692 0
DWIDTH 13 0
BBX 11 18 1 -4
BITMAP
0fc0
3fe0
7020
6000
e000
c000
c000
c000
c000
c000
6000
7020
3fe0
0fc0
0400
0600
0600
0e00
ENDCHAR
STARTCHAR Ccaron
ENCODING 200
SWIDTH 692 0
DWIDTH 13 0
BBX 11 18 1 0
BITMAP
1980
0f00
0600
0000
0fc0
3fe0
7020
6000
e000
c000
c000
c000
c000
c000
6000
7020
3fe0
0fc0
ENDCHAR
STARTCHAR Eacute
ENCODING 201
SWIDTH 542 0
DWIDTH 10 0
BBX 8 18 2 0
BITMAP
0c
18
30
00
ff
ff
c0
c0
c0
c0
fe
fe
c0
c0
c0
c0
ff
ff
ENDCHAR
STARTCHAR Eogonek
ENCODING 202
SWIDTH 542 0
DWIDTH 10 0
BBX 8 17 2 -3
BITMAP
ff
ff
c0
c0
c0
c0
fe
fe
c0
c0
c0
c0
ff
ff
10
20
38
ENDCHAR
STARTCHAR Ediaeresis
ENCODING 203
SWIDTH 542 0
DWIDTH 10 0
BBX 8 17 2 0
BITMAP
4c
4c
00
ff
ff
c0
c0
c0
c0
fe
fe
c0
c0
c0
c0
ff
ff
ENDCHAR
STARTCHAR Ecaron
ENCODING 204
SWIDTH 542 0
DWIDTH 10 0
BBX 8 18 2 0
BITMAP
66
3c
18
00
ff
ff
c0
c0
c0
c0
fe
fe
c0
c0
c0
c0
ff
ff
ENDCHAR
STARTCHAR Iacute
ENCODING 205
SWIDTH 288 0
DWIDTH 5 0
BBX 4 18 3 0
BITMAP
30
60
c0
00
60
60
60
60
60
60
60
60
60
60
60
60
60
60
ENDCHAR
STARTCHAR Icircumflex
ENCODING 206
SWIDTH 288 0
DWIDTH 5 0
BBX 6 18 4 0
BITMAP
30
78
cc
00
30
30
30
30
30
30
30
30
30
30
30
30
30
30
ENDCHAR
STARTCHAR Dcaron
ENCODING 207
SWIDTH 749 0
DWIDTH 14 0
BBX 11 18 2 0
BITMAP
3300
1e00
0c00
0000
fe00
ff80
c1c0
c0c0
c060
c060
c060
c060
c060
c060
c0c0
c1c0
ff80
fe00
ENDCHAR
STARTCHAR Dstroke
ENCODING 208
SWIDTH 749 0
DWIDTH 14 0
BBX 13 14 0 0
BITMAP
3f80
3fe0
3070
3030
3018
3018
fe18
fe18
3018
3018
3030
3070
3fe0
3f80
ENDCHAR
STARTCHAR Nacute
ENCODING 209
SWIDTH 741 0
DWIDTH 14 0
BBX 10 18 2 0
BITMAP
0300
0600
0c00
0000
c0c0
e0c0
f0c0
f0c0
f8c0
d8c0
ccc0
ccc0
c6c0
c7c0
c3c0
c3c0
c1c0
c0c0
ENDCHAR
STARTCHAR Ncaron
ENCODING 210
SWIDTH 741 0
DWIDTH 14 0
BBX 10 18 2 0
BITMAP
3300
1e00
0c00
0000
c0c0
e0c0
f0c0
f0c0
f8c0
d8c0
ccc0
ccc0
c6c0
c7c0
c3c0
c3c0
c1c0
c0c0
ENDCHAR
STARTCHAR Oacute
ENCODING 211
SWIDTH 777 0
DWIDTH 15 0
BBX 13 18 1 0
BITMAP
0180
0300
0600
0000
0f80
3fe0
7070
6030
e038
c018
c018
c018
c018
e038
6030
7070
3fe0
0f80
ENDCHAR
STARTCHAR Ocircumflex
ENCODING 212
SWIDTH 777 0
DWIDTH 15 0
BBX 13 18 1 0
BITMAP
0300
0780
0cc0
0000
0f80
3fe0
7070
6030
e038
c018
c018
c018
c018
e038
6030
7070
3fe0
0f80
ENDCHAR
STARTCHAR Odoubleacute
ENCODING 213
SWIDTH 777 0
DWIDTH 15 0
BBX 13 18 1 0
BITMAP
01e0
02c0
0780
0000
0f80
3fe0
7070
6030
e038
c018
c018
c018
c018
e038
6030
7070
3fe0
0f80
ENDCHAR
STARTCHAR Odiaeresis
ENCODING 214
SWIDTH 777 0
DWIDTH 15 0
BBX 13 17 1 0
BITMAP
0980
0980
0000
0f80
3fe0
7070
6030
e038
c018
c018
c018
c018
e038
6030
7070
3fe0
0f80
ENDCHAR
STARTCHAR multiply
ENCODING 215
SWIDTH 633 0
DWIDTH 12 0
BBX 11 12 1 0
BITMAP
4040
e0e0
71c0
3b80
1b00
0e00
0e00
1b00
3b80
71c0
e0e0
4040
ENDCHAR
STARTCHAR Rcaron
ENCODING 216
SWIDTH 633 0
DWIDTH 12 0
BBX 10 18 2 0
BITMAP
6600
3c00
1800
0000
fc00
fe00
c700
c300
c300
c200
c600
f800
fc00
ce00
c600
c300
c380
c1c0
ENDCHAR
STARTCHAR Uring
ENCODING 217
SWIDTH 693 0
DWIDTH 13 0
BBX 10 18 2 0
BITMAP
1c00
1400
1c00
0000
c0c0
c0c0
c0c0
c0c0
c0c0
c0c0
c0c0
c0c0
c0c0
c0c0
c0c0
e1c0
7f80
3f00
ENDCHAR
STARTCHAR Uacute
ENCODING 218
SWIDTH 693 0
DWIDTH 13 0
BBX 10 18 2 0
BITMAP
0600
0c00
1800
0000
c0c0
c0c0
c0c0
c0c0
c0c0
c0c0
c0c0
c0c0
c0c0
c0c0
c0c0
e1c0
7f80
3f00
ENDCHAR
STARTCHAR Udoubleacute
ENCODING 219
SWIDTH 693 0
DWIDTH 13 0
BBX 10 18 2 0
BITMAP
0780
0b00
1e00
0000
c0c0
c0c0
c0c0
c0c0
c0c0
c0c0
c0c0
c0c0
c0c0
c0c0
c0c0
e1c0
7f80
3f00
ENDCHAR
STARTCHAR Udiaeresis
ENCODING 220
SWIDTH 693 0
DWIDTH 13 0
BBX 10 17 2 0
BITMAP
2600
2600
0000
c0c0
c0c0
c0c0
c0c0
c0c0
c0c0
c0c0
c0c0
c0c0
c0c0
c0c0
e1c0
7f80
3f00
ENDCHAR
STARTCHAR Yacute
ENCODING 221
SWIDTH 623 0
DWIDTH 12 0
BBX 12 18 0 0
BITMAP
0180
0300
0600
0000
e030
6060
70e0
30c0
1980
1f80
0f00
0700
0600
0600
0600
0600
0600
0600
ENDCHAR
STARTCHAR Tcedilla
ENCODING 222
SWIDTH 633 0
DWIDTH 12 0
BBX 12 18 0 -4
BITMAP
fff0
fff0
0600
0600
0600
0600
0600
0600
0600
0600
0600
0600
0600
0600
0c00
0600
0600
0e00
ENDCHAR
STARTCHAR ssharp
ENCODING 223
SWIDTH 598 0
DWIDTH 11 0
BBX 9 15 2 0
BITMAP
7c00
fe00
c600
c600
ce00
dc00
d800
dc00
ce00
c700
c380
c180
d180
df80
cf00
ENDCHAR
STARTCHAR racute
ENCODING 224
SWIDTH 409 0
DWIDTH 8 0
BBX 6 14 2 0
BITMAP
0c
18
30
00
cc
dc
e0
c0
c0
c0
c0
c0
c0
c0
ENDCHAR
STARTCHAR aacute
ENCODING 225
SWIDTH 552 0
DWIDTH 10 0
BBX 9 14 1 0
BITMAP
0600
0c00
1800
0000
3e00
7f00
4300
0300
3f00
7f00
c300
c300
ff80
7380
ENDCHAR
STARTCHAR acircumflex
ENCODING 226
SWIDTH 552 0
DWIDTH 10 0
BBX 9 14 1 0
BITMAP
1800
3c00
6600
0000
3e00
7f00
4300
0300
3f00
7f00
c300
c300
ff80
7380
ENDCHAR
STARTCHAR abreve
ENCODING 227
SWIDTH 552 0
DWIDTH 10 0
BBX 9 14 1 0
BITMAP
2100
3f00
1e00
0000
3e00
7f00
4300
0300
3f00
7f00
c300
c300
ff80
7380
ENDCHAR
STARTCHAR adiaeresis
ENCODING 228
SWIDTH 552 0
DWIDTH 10 0
BBX 9 13 1 0
BITMAP
2600
2600
0000
3e00
7f00
4300
0300
3f00
7f00
c300
c300
ff80
7380
ENDCHAR
STARTCHAR lacute
ENCODING 229
SWIDTH 289 0
DWIDTH 5 0
BBX 4 18 2 0
BITMAP
30
60
c0
00
c0
c0
c0
c0
c0
c0
c0
c0
c0
c0
c0
c0
c0
c0
ENDCHAR
STARTCHAR cacute
ENCODING 230
SWIDTH 518 0
DWIDTH 10 0
BBX 8 14 1 0
BITMAP
03
06
0c
00
1f
7f
60
c0
c0
c0
c0
61
7f
1e
ENDCHAR
STARTCHAR ccedilla
ENCODING 231
SWIDTH 518 0
DWIDTH 10 0
BBX 8 14 1 -4
BITMAP
1f
7f
60
c0
c0
c0
c0
61
7f
1e
08
0c
0c
1c
ENDCHAR
STARTCHAR ccaron
ENCODING 232
SWIDTH 518 0
DWIDTH 10 0
BBX 8 14 1 0
BITMAP
33
1e
0c
00
1f
7f
60
c0
c0
c0
c0
61
7f
1e
ENDCHAR
STARTCHAR eacute
ENCODING 233
SWIDTH 557 0
DWIDTH 11 0
BBX 8 14 1 0
BITMAP
06
0c
18
00
3c
7e
63
c3
ff
ff
c0
e1
7f
3e
ENDCHAR
STARTCHAR eogonek
ENCODING 234
SWIDTH 557 0
DWIDTH 11 0
BBX 8 13 1 -3
BITMAP
3c
7e
63
c3
ff
ff
c0
e1
7f
3e
10
20
38
ENDCHAR
STARTCHAR ediaeresis
ENCODING 235
SWIDTH 557 0
DWIDTH 11 0
BBX 8 13 1 0
BITMAP
26
26
00
3c
7e
63
c3
ff
ff
c0
e1
7f
3e
ENDCHAR
STARTCHAR ecaron
ENCODING 236
SWIDTH 557 0
DWIDTH 11 0
BBX 8 14 1 0
BITMAP
66
3c
18
00
3c
7e
63
c3
ff
ff
c0
e1
7f
3e
ENDCHAR
STARTCHAR iacute
ENCODING 237
SWIDTH 289 0
DWIDTH 5 0
BBX 4 14 3 0
BITMAP
30
60
c0
00
60
60
60
60
60
60
60
60
60
60
ENDCHAR
STARTCHAR icircumflex
ENCODING 238
SWIDTH 289 0
DWIDTH 5 0
BBX 6 14 4 0
BITMAP
30
78
cc
00
30
30
30
30
30
30
30
30
30
30
ENDCHAR
STARTCHAR dcaron
ENCODING 239
SWIDTH 842 0
DWIDTH 16 0
BBX 13 15 1 0
BITMAP
0038
01b8
0198
0198
01b0
3d80
7f80
6380
c180
c180
c180
c180
e380
7f80
3d80
ENDCHAR
STARTCHAR dstroke
ENCODING 240
SWIDTH 789 0
DWIDTH 15 0
BBX 12 14 1 0
BITMAP
0180
0ff0
0180
0180
3d80
7f80
6380
c180
c180
c180
c180
e380
7f80
3d80
ENDCHAR
STARTCHAR nacute
ENCODING 241
SWIDTH 620 0
DWIDTH 12 0
BBX 8 14 2 0
BITMAP
06
0c
18
00
ce
df
e3
c3
c3
c3
c3
c3
c3
c3
ENDCHAR
STARTCHAR ncaron
ENCODING 242
SWIDTH 620 0
DWIDTH 12 0
BBX 8 14 2 0
BITMAP
66
3c
18
00
ce
df
e3
c3
c3
c3
c3
c3
c3
c3
ENDCHAR
STARTCHAR oacute
ENCODING 243
SWIDTH 614 0
DWIDTH 12 0
BBX 10 14 1 0
BITMAP
0600
0c00
1800
0000
1e00
7f80
6180
c0c0
c0c0
c0c0
c0c0
6180
7f80
1e00
ENDCHAR
STARTCHAR ocircumflex
ENCODING 244
SWIDTH 614 0
DWIDTH 12 0
BBX 10 14 1 0
BITMAP
0c00
1e00
3300
0000
1e00
7f80
6180
c0c0
c0c0
c0c0
c0c0
6180
7f80
1e00
ENDCHAR
STARTCHAR odoubleacute
ENCODING 245
SWIDTH 614 0
DWIDTH 12 0
BBX 10 14 1 0
BITMAP
0780
0b00
1e00
0000
1e00
7f80
6180
c0c0
c0c0
c0c0
c0c0
6180
7f80
1e00
ENDCHAR
STARTCHAR odiaeresis
ENCODING 246
SWIDTH 614 0
DWIDTH 12 0
BBX 10 13 1 0
BITMAP
2600
2600
0000
1e00
7f80
6180
c0c0
c0c0
c0c0
c0c0
6180
7f80
1e00
ENDCHAR
STARTCHAR division
ENCODING 247
SWIDTH 633 0
DWIDTH 12 0
BBX 10 10 1 0
BITMAP
0c00
0c00
0000
0000
ffc0
ffc0
0000
0000
0c00
0c00
ENDCHAR
STARTCHAR rcaron
ENCODING 248
SWIDTH 409 0
DWIDTH 8 0
BBX 6 14 2 0
BITMAP
cc
78
30
00
cc
dc
e0
c0
c0
c0
c0
c0
c0
c0
ENDCHAR
STARTCHAR uring
ENCODING 249
SWIDTH 620 0
DWIDTH 12 0
BBX 8 14 2 0
BITMAP
38
28
38
00
c3
c3
c3
c3
c3
c3
c3
c7
fb
73
ENDCHAR
STARTCHAR uacute
ENCODING 250
SWIDTH 620 0
DWIDTH 12 0
BBX 8 14 2 0
BITMAP
06
0c
18
00
c3
c3
c3
c3
c3
c3
c3
c7
fb
73
ENDCHAR
STARTCHAR udoubleacute
ENCODING 251
SWIDTH 620 0
DWIDTH 12 0
BBX 8 14 2 0
BITMAP
0f
16
3c
00
c3
c3
c3
c3
c3
c3
c3
c7
fb
73
ENDCHAR
STARTCHAR udiaeresis
ENCODING 252
SWIDTH 620 0
DWIDTH 12 0
BBX 8 13 2 0
BITMAP
26
26
00
c3
c3
c3
c3
c3
c3
c3
c7
fb
73
ENDCHAR
STARTCHAR yacute
ENCODING 253
SWIDTH 568 0
DWIDTH 10 0
BBX 10 18 0 -4
BITMAP
0600
0c00
1800
0000
c0c0
61c0
6180
6180
3300
3300
1f00
1e00
1e00
0c00
0c00
1c00
1800
3800
ENDCHAR
STARTCHAR tcedilla
ENCODING 254
SWIDTH 374 0
DWIDTH 7 0
BBX 6 17 1 -4
BITMAP
60
60
60
fc
fc
60
60
60
60
60
60
7c
3c
60
30
30
70
ENDCHAR
STARTCHAR abovedot
ENCODING 255
SWIDTH 614 0
DWIDTH 12 0
BBX 2 2 5 12
BITMAP
c0
c0
ENDCHAR
ENDFONT
